<mxfile host="app.diagrams.net" modified="2021-06-11T21:33:27.255Z" agent="5.0 (X11)" etag="Wwb20XocaulVX43YKX9Z" version="14.7.6" type="github">
  <diagram id="cD8ru6_q1HfbnzNJ8fIS" name="Page-1">
    <mxGraphModel dx="1673" dy="329" grid="1" gridSize="10" guides="1" tooltips="1" connect="1" arrows="1" fold="1" page="1" pageScale="1" pageWidth="1100" pageHeight="850" math="0" shadow="0">
      <root>
        <mxCell id="0" />
        <mxCell id="1" parent="0" />
        <mxCell id="45BwKRQFMw8ePF0l4Dvl-6" value="" style="rounded=0;whiteSpace=wrap;html=1;fillColor=#fff2cc;fontFamily=Noto Sans;fontSource=https%3A%2F%2Ffonts.googleapis.com%2Fcss%3Ffamily%3DNoto%2BSans;strokeColor=#d6b656;" vertex="1" parent="1">
          <mxGeometry x="50" y="320" width="300" height="200" as="geometry" />
        </mxCell>
        <mxCell id="45BwKRQFMw8ePF0l4Dvl-1" value="" style="rounded=0;whiteSpace=wrap;html=1;fillColor=#dae8fc;fontFamily=Noto Sans;fontSource=https%3A%2F%2Ffonts.googleapis.com%2Fcss%3Ffamily%3DNoto%2BSans;strokeColor=#6c8ebf;" vertex="1" parent="1">
          <mxGeometry x="460" y="210" width="380" height="380" as="geometry" />
        </mxCell>
        <mxCell id="45BwKRQFMw8ePF0l4Dvl-2" value="Sensor 1" style="rounded=0;whiteSpace=wrap;html=1;fontFamily=Noto Sans;fontSource=https%3A%2F%2Ffonts.googleapis.com%2Fcss%3Ffamily%3DNoto%2BSans;fillColor=#f5f5f5;strokeColor=#666666;fontColor=#333333;" vertex="1" parent="1">
          <mxGeometry x="950" y="250" width="120" height="60" as="geometry" />
        </mxCell>
        <mxCell id="45BwKRQFMw8ePF0l4Dvl-3" value="Sensor 2" style="rounded=0;whiteSpace=wrap;html=1;fontFamily=Noto Sans;fontSource=https%3A%2F%2Ffonts.googleapis.com%2Fcss%3Ffamily%3DNoto%2BSans;fillColor=#f5f5f5;strokeColor=#666666;fontColor=#333333;" vertex="1" parent="1">
          <mxGeometry x="950" y="460" width="120" height="60" as="geometry" />
        </mxCell>
        <mxCell id="45BwKRQFMw8ePF0l4Dvl-4" value="&lt;div&gt;UART&lt;/div&gt;&lt;div&gt;Peripheral&lt;br&gt;&lt;/div&gt;" style="rounded=0;whiteSpace=wrap;html=1;fillColor=#0050ef;fontFamily=Noto Sans;fontSource=https%3A%2F%2Ffonts.googleapis.com%2Fcss%3Ffamily%3DNoto%2BSans;strokeColor=#001DBC;fontColor=#ffffff;" vertex="1" parent="1">
          <mxGeometry x="400" y="350" width="120" height="60" as="geometry" />
        </mxCell>
        <mxCell id="45BwKRQFMw8ePF0l4Dvl-34" value="UDP" style="edgeStyle=orthogonalEdgeStyle;rounded=0;orthogonalLoop=1;jettySize=auto;html=1;exitX=0;exitY=0.5;exitDx=0;exitDy=0;entryX=1;entryY=0.5;entryDx=0;entryDy=0;fontFamily=Noto Sans;fontSource=https%3A%2F%2Ffonts.googleapis.com%2Fcss%3Ffamily%3DNoto%2BSans;startArrow=classic;startFill=1;endSize=3;startSize=3;labelBackgroundColor=none;horizontal=0;" edge="1" parent="1" source="45BwKRQFMw8ePF0l4Dvl-5" target="45BwKRQFMw8ePF0l4Dvl-7">
          <mxGeometry y="-20" relative="1" as="geometry">
            <mxPoint as="offset" />
          </mxGeometry>
        </mxCell>
        <mxCell id="45BwKRQFMw8ePF0l4Dvl-37" value="USB" style="edgeStyle=orthogonalEdgeStyle;rounded=0;orthogonalLoop=1;jettySize=auto;html=1;exitX=1;exitY=0.5;exitDx=0;exitDy=0;entryX=0;entryY=0.5;entryDx=0;entryDy=0;fontFamily=Noto Sans;fontSource=https%3A%2F%2Ffonts.googleapis.com%2Fcss%3Ffamily%3DNoto%2BSans;startArrow=classic;startFill=1;startSize=6;endSize=6;" edge="1" parent="1" source="45BwKRQFMw8ePF0l4Dvl-5" target="45BwKRQFMw8ePF0l4Dvl-4">
          <mxGeometry x="0.1429" y="10" relative="1" as="geometry">
            <mxPoint as="offset" />
          </mxGeometry>
        </mxCell>
        <mxCell id="45BwKRQFMw8ePF0l4Dvl-5" value="link.cpp" style="rounded=0;whiteSpace=wrap;html=1;fillColor=#a20025;fontFamily=PT Mono;fontSource=https%3A%2F%2Ffonts.googleapis.com%2Fcss%3Ffamily%3DPT%2BMono;strokeColor=#6F0000;fontColor=#ffffff;" vertex="1" parent="1">
          <mxGeometry x="210" y="350" width="120" height="60" as="geometry" />
        </mxCell>
        <mxCell id="45BwKRQFMw8ePF0l4Dvl-38" value="HTML" style="edgeStyle=orthogonalEdgeStyle;rounded=0;orthogonalLoop=1;jettySize=auto;html=1;exitX=0;exitY=0.5;exitDx=0;exitDy=0;fontFamily=Noto Sans;fontSource=https%3A%2F%2Ffonts.googleapis.com%2Fcss%3Ffamily%3DNoto%2BSans;startArrow=classic;startFill=1;startSize=6;endSize=6;" edge="1" parent="1" source="45BwKRQFMw8ePF0l4Dvl-7" target="45BwKRQFMw8ePF0l4Dvl-8">
          <mxGeometry y="-11" relative="1" as="geometry">
            <mxPoint as="offset" />
          </mxGeometry>
        </mxCell>
        <mxCell id="45BwKRQFMw8ePF0l4Dvl-7" value="YAMCS server" style="rounded=0;whiteSpace=wrap;html=1;fillColor=#a20025;fontFamily=Noto Sans;fontSource=https%3A%2F%2Ffonts.googleapis.com%2Fcss%3Ffamily%3DNoto%2BSans;strokeColor=#6F0000;fontColor=#ffffff;" vertex="1" parent="1">
          <mxGeometry x="70" y="350" width="120" height="60" as="geometry" />
        </mxCell>
        <mxCell id="45BwKRQFMw8ePF0l4Dvl-8" value="User" style="shape=umlActor;verticalLabelPosition=bottom;verticalAlign=top;html=1;outlineConnect=0;fillColor=#ffffff;fontFamily=Noto Sans;fontSource=https%3A%2F%2Ffonts.googleapis.com%2Fcss%3Ffamily%3DNoto%2BSans;" vertex="1" parent="1">
          <mxGeometry x="-70" y="325" width="50" height="110" as="geometry" />
        </mxCell>
        <mxCell id="45BwKRQFMw8ePF0l4Dvl-18" style="edgeStyle=orthogonalEdgeStyle;rounded=0;orthogonalLoop=1;jettySize=auto;html=1;exitX=0.5;exitY=0;exitDx=0;exitDy=0;entryX=0.5;entryY=1;entryDx=0;entryDy=0;fontFamily=Noto Sans;fontSource=https%3A%2F%2Ffonts.googleapis.com%2Fcss%3Ffamily%3DNoto%2BSans;" edge="1" parent="1" source="45BwKRQFMw8ePF0l4Dvl-9" target="45BwKRQFMw8ePF0l4Dvl-13">
          <mxGeometry relative="1" as="geometry" />
        </mxCell>
        <mxCell id="45BwKRQFMw8ePF0l4Dvl-20" style="edgeStyle=orthogonalEdgeStyle;rounded=0;orthogonalLoop=1;jettySize=auto;html=1;exitX=0;exitY=0.5;exitDx=0;exitDy=0;fontFamily=Noto Sans;fontSource=https%3A%2F%2Ffonts.googleapis.com%2Fcss%3Ffamily%3DNoto%2BSans;startArrow=classic;startFill=1;" edge="1" parent="1" source="45BwKRQFMw8ePF0l4Dvl-9">
          <mxGeometry relative="1" as="geometry">
            <mxPoint x="490" y="350" as="targetPoint" />
          </mxGeometry>
        </mxCell>
        <mxCell id="45BwKRQFMw8ePF0l4Dvl-23" style="edgeStyle=orthogonalEdgeStyle;rounded=0;orthogonalLoop=1;jettySize=auto;html=1;exitX=0.5;exitY=1;exitDx=0;exitDy=0;entryX=0.5;entryY=0;entryDx=0;entryDy=0;fontFamily=Noto Sans;fontSource=https%3A%2F%2Ffonts.googleapis.com%2Fcss%3Ffamily%3DNoto%2BSans;" edge="1" parent="1" source="45BwKRQFMw8ePF0l4Dvl-9" target="45BwKRQFMw8ePF0l4Dvl-15">
          <mxGeometry relative="1" as="geometry" />
        </mxCell>
        <mxCell id="45BwKRQFMw8ePF0l4Dvl-9" value="&lt;div&gt;ST[20]&lt;/div&gt;&lt;div&gt;parameter management&lt;br&gt;&lt;/div&gt;" style="rounded=0;whiteSpace=wrap;html=1;fillColor=#1ba1e2;fontFamily=Noto Sans;fontSource=https%3A%2F%2Ffonts.googleapis.com%2Fcss%3Ffamily%3DNoto%2BSans;strokeColor=#006EAF;fontColor=#ffffff;" vertex="1" parent="1">
          <mxGeometry x="580" y="300" width="160" height="40" as="geometry" />
        </mxCell>
        <mxCell id="45BwKRQFMw8ePF0l4Dvl-35" style="edgeStyle=orthogonalEdgeStyle;rounded=0;orthogonalLoop=1;jettySize=auto;html=1;exitX=0.75;exitY=0;exitDx=0;exitDy=0;entryX=0;entryY=0.5;entryDx=0;entryDy=0;fontFamily=Noto Sans;fontSource=https%3A%2F%2Ffonts.googleapis.com%2Fcss%3Ffamily%3DNoto%2BSans;startArrow=classic;startFill=1;startSize=6;endSize=6;" edge="1" parent="1" source="45BwKRQFMw8ePF0l4Dvl-10" target="45BwKRQFMw8ePF0l4Dvl-2">
          <mxGeometry relative="1" as="geometry" />
        </mxCell>
        <mxCell id="45BwKRQFMw8ePF0l4Dvl-36" style="edgeStyle=orthogonalEdgeStyle;rounded=0;orthogonalLoop=1;jettySize=auto;html=1;exitX=0.75;exitY=1;exitDx=0;exitDy=0;entryX=0;entryY=0.5;entryDx=0;entryDy=0;fontFamily=Noto Sans;fontSource=https%3A%2F%2Ffonts.googleapis.com%2Fcss%3Ffamily%3DNoto%2BSans;startArrow=classic;startFill=1;startSize=6;endSize=6;" edge="1" parent="1" source="45BwKRQFMw8ePF0l4Dvl-10" target="45BwKRQFMw8ePF0l4Dvl-3">
          <mxGeometry relative="1" as="geometry" />
        </mxCell>
        <mxCell id="45BwKRQFMw8ePF0l4Dvl-10" value="Device Drivers" style="rounded=0;whiteSpace=wrap;html=1;fillColor=#0050ef;fontFamily=Noto Sans;fontSource=https%3A%2F%2Ffonts.googleapis.com%2Fcss%3Ffamily%3DNoto%2BSans;strokeColor=#001DBC;fontColor=#ffffff;" vertex="1" parent="1">
          <mxGeometry x="790" y="350" width="120" height="60" as="geometry" />
        </mxCell>
        <mxCell id="45BwKRQFMw8ePF0l4Dvl-11" value="FreeRTOS" style="rounded=0;whiteSpace=wrap;html=1;fillColor=#0050ef;fontFamily=Noto Sans;fontSource=https%3A%2F%2Ffonts.googleapis.com%2Fcss%3Ffamily%3DNoto%2BSans;strokeColor=#001DBC;fontColor=#ffffff;" vertex="1" parent="1">
          <mxGeometry x="470" y="536" width="110" height="40" as="geometry" />
        </mxCell>
        <mxCell id="45BwKRQFMw8ePF0l4Dvl-12" value="Microchip HAL" style="rounded=0;whiteSpace=wrap;html=1;fillColor=#0050ef;fontFamily=Noto Sans;fontSource=https%3A%2F%2Ffonts.googleapis.com%2Fcss%3Ffamily%3DNoto%2BSans;strokeColor=#001DBC;fontColor=#ffffff;" vertex="1" parent="1">
          <mxGeometry x="595" y="536" width="110" height="40" as="geometry" />
        </mxCell>
        <mxCell id="45BwKRQFMw8ePF0l4Dvl-19" style="edgeStyle=orthogonalEdgeStyle;rounded=0;orthogonalLoop=1;jettySize=auto;html=1;exitX=0;exitY=0.5;exitDx=0;exitDy=0;entryX=0.75;entryY=0;entryDx=0;entryDy=0;fontFamily=Noto Sans;fontSource=https%3A%2F%2Ffonts.googleapis.com%2Fcss%3Ffamily%3DNoto%2BSans;startArrow=classic;startFill=1;" edge="1" parent="1" source="45BwKRQFMw8ePF0l4Dvl-13" target="45BwKRQFMw8ePF0l4Dvl-4">
          <mxGeometry relative="1" as="geometry" />
        </mxCell>
        <mxCell id="45BwKRQFMw8ePF0l4Dvl-13" value="&lt;div&gt;ST[03]&lt;/div&gt;&lt;div&gt;housekeeping&lt;br&gt;&lt;/div&gt;" style="rounded=0;whiteSpace=wrap;html=1;fillColor=#1ba1e2;fontFamily=Noto Sans;fontSource=https%3A%2F%2Ffonts.googleapis.com%2Fcss%3Ffamily%3DNoto%2BSans;strokeColor=#006EAF;fontColor=#ffffff;" vertex="1" parent="1">
          <mxGeometry x="580" y="240" width="160" height="40" as="geometry" />
        </mxCell>
        <mxCell id="45BwKRQFMw8ePF0l4Dvl-21" style="edgeStyle=orthogonalEdgeStyle;rounded=0;orthogonalLoop=1;jettySize=auto;html=1;exitX=0;exitY=0.5;exitDx=0;exitDy=0;entryX=1;entryY=0.5;entryDx=0;entryDy=0;fontFamily=Noto Sans;fontSource=https%3A%2F%2Ffonts.googleapis.com%2Fcss%3Ffamily%3DNoto%2BSans;startArrow=classic;startFill=1;" edge="1" parent="1" source="45BwKRQFMw8ePF0l4Dvl-15" target="45BwKRQFMw8ePF0l4Dvl-4">
          <mxGeometry relative="1" as="geometry" />
        </mxCell>
        <mxCell id="45BwKRQFMw8ePF0l4Dvl-25" style="edgeStyle=orthogonalEdgeStyle;rounded=0;orthogonalLoop=1;jettySize=auto;html=1;exitX=0.5;exitY=1;exitDx=0;exitDy=0;entryX=0.5;entryY=0;entryDx=0;entryDy=0;fontFamily=Noto Sans;fontSource=https%3A%2F%2Ffonts.googleapis.com%2Fcss%3Ffamily%3DNoto%2BSans;" edge="1" parent="1" source="45BwKRQFMw8ePF0l4Dvl-15" target="45BwKRQFMw8ePF0l4Dvl-16">
          <mxGeometry relative="1" as="geometry" />
        </mxCell>
        <mxCell id="45BwKRQFMw8ePF0l4Dvl-15" value="&lt;div&gt;ST[15]&lt;/div&gt;&lt;div&gt;on-board monitoring&lt;br&gt;&lt;/div&gt;" style="rounded=0;whiteSpace=wrap;html=1;fillColor=#1ba1e2;fontFamily=Noto Sans;fontSource=https%3A%2F%2Ffonts.googleapis.com%2Fcss%3Ffamily%3DNoto%2BSans;strokeColor=#006EAF;fontColor=#ffffff;" vertex="1" parent="1">
          <mxGeometry x="580" y="360" width="160" height="40" as="geometry" />
        </mxCell>
        <mxCell id="45BwKRQFMw8ePF0l4Dvl-22" style="edgeStyle=orthogonalEdgeStyle;rounded=0;orthogonalLoop=1;jettySize=auto;html=1;exitX=0;exitY=0.5;exitDx=0;exitDy=0;entryX=0.75;entryY=1;entryDx=0;entryDy=0;fontFamily=Noto Sans;fontSource=https%3A%2F%2Ffonts.googleapis.com%2Fcss%3Ffamily%3DNoto%2BSans;startArrow=classic;startFill=1;" edge="1" parent="1" source="45BwKRQFMw8ePF0l4Dvl-16" target="45BwKRQFMw8ePF0l4Dvl-4">
          <mxGeometry relative="1" as="geometry">
            <mxPoint x="490" y="420" as="targetPoint" />
          </mxGeometry>
        </mxCell>
        <mxCell id="45BwKRQFMw8ePF0l4Dvl-26" style="edgeStyle=orthogonalEdgeStyle;rounded=0;orthogonalLoop=1;jettySize=auto;html=1;exitX=0.5;exitY=1;exitDx=0;exitDy=0;entryX=0.5;entryY=0;entryDx=0;entryDy=0;fontFamily=Noto Sans;fontSource=https%3A%2F%2Ffonts.googleapis.com%2Fcss%3Ffamily%3DNoto%2BSans;" edge="1" parent="1" source="45BwKRQFMw8ePF0l4Dvl-16" target="45BwKRQFMw8ePF0l4Dvl-24">
          <mxGeometry relative="1" as="geometry" />
        </mxCell>
        <mxCell id="45BwKRQFMw8ePF0l4Dvl-16" value="&lt;div&gt;ST[04]&lt;/div&gt;&lt;div&gt;event reporting&lt;br&gt;&lt;/div&gt;" style="rounded=0;whiteSpace=wrap;html=1;fillColor=#1ba1e2;fontFamily=Noto Sans;fontSource=https%3A%2F%2Ffonts.googleapis.com%2Fcss%3Ffamily%3DNoto%2BSans;strokeColor=#006EAF;fontColor=#ffffff;" vertex="1" parent="1">
          <mxGeometry x="580" y="420" width="160" height="40" as="geometry" />
        </mxCell>
        <mxCell id="45BwKRQFMw8ePF0l4Dvl-28" style="edgeStyle=orthogonalEdgeStyle;rounded=0;orthogonalLoop=1;jettySize=auto;html=1;exitX=0.75;exitY=1;exitDx=0;exitDy=0;entryX=0.148;entryY=-0.002;entryDx=0;entryDy=0;fontFamily=Noto Sans;fontSource=https%3A%2F%2Ffonts.googleapis.com%2Fcss%3Ffamily%3DNoto%2BSans;entryPerimeter=0;startArrow=classic;startFill=1;" edge="1" parent="1" source="45BwKRQFMw8ePF0l4Dvl-17" target="45BwKRQFMw8ePF0l4Dvl-10">
          <mxGeometry relative="1" as="geometry" />
        </mxCell>
        <mxCell id="45BwKRQFMw8ePF0l4Dvl-30" style="edgeStyle=orthogonalEdgeStyle;rounded=0;orthogonalLoop=1;jettySize=auto;html=1;exitX=0.25;exitY=1;exitDx=0;exitDy=0;entryX=1;entryY=0.5;entryDx=0;entryDy=0;fontFamily=Noto Sans;fontSource=https%3A%2F%2Ffonts.googleapis.com%2Fcss%3Ffamily%3DNoto%2BSans;startArrow=classic;startFill=1;" edge="1" parent="1" source="45BwKRQFMw8ePF0l4Dvl-17" target="45BwKRQFMw8ePF0l4Dvl-9">
          <mxGeometry relative="1" as="geometry" />
        </mxCell>
        <mxCell id="45BwKRQFMw8ePF0l4Dvl-17" value="Core Logic" style="rounded=0;whiteSpace=wrap;html=1;fillColor=#1ba1e2;fontFamily=Noto Sans;fontSource=https%3A%2F%2Ffonts.googleapis.com%2Fcss%3Ffamily%3DNoto%2BSans;strokeColor=#006EAF;fontColor=#ffffff;" vertex="1" parent="1">
          <mxGeometry x="770" y="230" width="50" height="70" as="geometry" />
        </mxCell>
        <mxCell id="45BwKRQFMw8ePF0l4Dvl-27" style="edgeStyle=orthogonalEdgeStyle;rounded=0;orthogonalLoop=1;jettySize=auto;html=1;exitX=0;exitY=0.5;exitDx=0;exitDy=0;entryX=0.75;entryY=1;entryDx=0;entryDy=0;fontFamily=Noto Sans;fontSource=https%3A%2F%2Ffonts.googleapis.com%2Fcss%3Ffamily%3DNoto%2BSans;startArrow=classic;startFill=1;" edge="1" parent="1" source="45BwKRQFMw8ePF0l4Dvl-24" target="45BwKRQFMw8ePF0l4Dvl-4">
          <mxGeometry relative="1" as="geometry" />
        </mxCell>
        <mxCell id="45BwKRQFMw8ePF0l4Dvl-24" value="&lt;div&gt;ST[19]&lt;/div&gt;&lt;div&gt;event-action&lt;br&gt;&lt;/div&gt;" style="rounded=0;whiteSpace=wrap;html=1;fillColor=#1ba1e2;fontFamily=Noto Sans;fontSource=https%3A%2F%2Ffonts.googleapis.com%2Fcss%3Ffamily%3DNoto%2BSans;strokeColor=#006EAF;fontColor=#ffffff;" vertex="1" parent="1">
          <mxGeometry x="580" y="480" width="160" height="40" as="geometry" />
        </mxCell>
        <mxCell id="45BwKRQFMw8ePF0l4Dvl-31" value="Mission Database" style="rounded=0;whiteSpace=wrap;html=1;fillColor=#0050ef;fontFamily=Noto Sans;fontSource=https%3A%2F%2Ffonts.googleapis.com%2Fcss%3Ffamily%3DNoto%2BSans;strokeColor=#001DBC;fontColor=#ffffff;" vertex="1" parent="1">
          <mxGeometry x="720" y="536" width="110" height="40" as="geometry" />
        </mxCell>
        <mxCell id="45BwKRQFMw8ePF0l4Dvl-33" value="XML" style="edgeStyle=orthogonalEdgeStyle;rounded=0;orthogonalLoop=1;jettySize=auto;html=1;exitX=0.5;exitY=0;exitDx=0;exitDy=0;entryX=0.5;entryY=1;entryDx=0;entryDy=0;fontFamily=Noto Sans;fontSource=https%3A%2F%2Ffonts.googleapis.com%2Fcss%3Ffamily%3DNoto%2BSans;labelBackgroundColor=none;" edge="1" parent="1" source="45BwKRQFMw8ePF0l4Dvl-32" target="45BwKRQFMw8ePF0l4Dvl-7">
          <mxGeometry y="-20" relative="1" as="geometry">
            <mxPoint as="offset" />
          </mxGeometry>
        </mxCell>
        <mxCell id="45BwKRQFMw8ePF0l4Dvl-32" value="XTCE description" style="rounded=0;whiteSpace=wrap;html=1;fillColor=#a20025;fontFamily=Noto Sans;fontSource=https%3A%2F%2Ffonts.googleapis.com%2Fcss%3Ffamily%3DNoto%2BSans;strokeColor=#6F0000;fontColor=#ffffff;" vertex="1" parent="1">
          <mxGeometry x="70" y="450" width="120" height="40" as="geometry" />
        </mxCell>
        <mxCell id="45BwKRQFMw8ePF0l4Dvl-39" value="Desktop Computer" style="text;html=1;strokeColor=none;fillColor=none;align=right;verticalAlign=middle;whiteSpace=wrap;rounded=0;fontFamily=Noto Sans;fontSource=https%3A%2F%2Ffonts.googleapis.com%2Fcss%3Ffamily%3DNoto%2BSans;" vertex="1" parent="1">
          <mxGeometry x="170" y="290" width="180" height="20" as="geometry" />
        </mxCell>
        <mxCell id="45BwKRQFMw8ePF0l4Dvl-40" value="Microcontroller" style="text;html=1;strokeColor=none;fillColor=none;align=right;verticalAlign=middle;whiteSpace=wrap;rounded=0;fontFamily=Noto Sans;fontSource=https%3A%2F%2Ffonts.googleapis.com%2Fcss%3Ffamily%3DNoto%2BSans;" vertex="1" parent="1">
          <mxGeometry x="660" y="180" width="180" height="20" as="geometry" />
        </mxCell>
        <mxCell id="45BwKRQFMw8ePF0l4Dvl-41" value="&amp;nbsp;" style="text;whiteSpace=wrap;html=1;fontFamily=Noto Sans;" vertex="1" parent="1">
          <mxGeometry x="920" y="140" width="30" height="30" as="geometry" />
        </mxCell>
        <mxCell id="45BwKRQFMw8ePF0l4Dvl-42" value="" style="points=[];aspect=fixed;html=1;align=center;shadow=0;dashed=0;image;image=img/lib/allied_telesis/computer_and_terminals/Personal_Computer.svg;fontFamily=PT Mono;fontSource=https%3A%2F%2Ffonts.googleapis.com%2Fcss%3Ffamily%3DPT%2BMono;fillColor=#ffffff;" vertex="1" parent="1">
          <mxGeometry x="200" y="275.31" width="25.6" height="34.69" as="geometry" />
        </mxCell>
        <mxCell id="45BwKRQFMw8ePF0l4Dvl-43" value="" style="shape=image;html=1;verticalAlign=top;verticalLabelPosition=bottom;labelBackgroundColor=#ffffff;imageAspect=0;aspect=fixed;image=https://cdn2.iconfinder.com/data/icons/computers-and-hardware-1/32/Computers_and_Hardware_chip_component-128.png;fontFamily=PT Mono;fontSource=https%3A%2F%2Ffonts.googleapis.com%2Fcss%3Ffamily%3DPT%2BMono;fillColor=#ffffff;" vertex="1" parent="1">
          <mxGeometry x="710" y="170" width="30" height="30" as="geometry" />
        </mxCell>
        <mxCell id="45BwKRQFMw8ePF0l4Dvl-44" value="I&lt;sup&gt;2&lt;/sup&gt;C" style="text;html=1;strokeColor=none;fillColor=none;align=center;verticalAlign=middle;whiteSpace=wrap;rounded=0;fontFamily=Noto Sans;fontSource=https%3A%2F%2Ffonts.googleapis.com%2Fcss%3Ffamily%3DNoto%2BSans;" vertex="1" parent="1">
          <mxGeometry x="880" y="305" width="40" height="20" as="geometry" />
        </mxCell>
        <mxCell id="45BwKRQFMw8ePF0l4Dvl-46" value="I&lt;sup&gt;2&lt;/sup&gt;C" style="text;html=1;strokeColor=none;fillColor=none;align=center;verticalAlign=middle;whiteSpace=wrap;rounded=0;fontFamily=Noto Sans;fontSource=https%3A%2F%2Ffonts.googleapis.com%2Fcss%3Ffamily%3DNoto%2BSans;" vertex="1" parent="1">
          <mxGeometry x="880" y="435" width="40" height="20" as="geometry" />
        </mxCell>
      </root>
    </mxGraphModel>
  </diagram>
</mxfile>
